<?xml version="1.0" encoding="UTF-8"?>
<svg id="Layer_1" data-name="Layer 1" xmlns="http://www.w3.org/2000/svg" viewBox="0 0 24 24">
  <defs>
    <style>
      .cls-1 {
        stroke-width: 0px;
      }
    </style>
  </defs>
  <path class="cls-1" d="M16.54,22.32H4.12c-.64-.24-.79-.46-.79-1.17,0-.54,0-1.08,0-1.62,0-.07,0-.14-.01-.2-.64-.09-.97-.41-.99-.95-.02-.61.27-.93.99-1.08V7.33c-.67-.11-.99-.43-.99-1.01,0-.59.3-.91,1-1.02,0-.07,0-.14,0-.21,0-.57,0-1.15,0-1.72,0-.7.37-1.06,1.06-1.06,3.95,0,7.9,0,11.85,0,.72,0,1.08.37,1.08,1.09,0,5.94,0,11.89,0,17.83,0,.1,0,.2-.02.29-.07.44-.36.67-.76.79ZM10.34,5.32c-1.33,0-2.67,0-4,0-.7,0-1.12.52-1,1.2.08.49.46.79.99.79,2.67,0,5.33,0,8,0,.03,0,.07,0,.1,0,.42-.03.74-.28.85-.66.22-.72-.22-1.33-.97-1.33-1.32,0-2.64,0-3.96,0ZM10.31,11.32c.94,0,1.87,0,2.81,0,.45,0,.9.01,1.35-.01.48-.02.8-.38.85-.88.05-.5-.23-.94-.68-1.05-.14-.04-.3-.05-.44-.05-2.58,0-5.17,0-7.75,0-.07,0-.14,0-.21,0-.51.04-.86.38-.91.86-.05.57.21.99.71,1.1.13.03.27.03.41.03,1.29,0,2.58,0,3.86,0ZM8.31,15.32c.66,0,1.33,0,1.99,0,.75,0,1.19-.62.97-1.34-.13-.44-.47-.66-1.01-.66-1.29,0-2.59,0-3.88,0-.08,0-.16,0-.23.01-.39.06-.66.27-.78.65-.22.73.22,1.33.98,1.34.65,0,1.3,0,1.95,0Z"/>
  <path class="cls-1" d="M22.32,17.32h-2.99c0-.08,0-.15,0-.21,0-4.57,0-9.14,0-13.7,0-.22.06-.46.16-.65.15-.3.45-.42.78-.43.29,0,.59,0,.88,0,.7,0,.92.14,1.18.78v14.22Z"/>
  <path class="cls-1" d="M22.32,19.35c-.22.43-.44.86-.66,1.3-.27.54-.55,1.09-.84,1.67-.5-1.01-.99-1.98-1.5-3.01h3v.04Z"/>
</svg>