<?xml version="1.0" encoding="UTF-8"?>
<svg id="Layer_1" data-name="Layer 1" xmlns="http://www.w3.org/2000/svg" viewBox="0 0 24 24">
  <defs>
    <style>
      .cls-1 {
        stroke-width: 0px;
      }
    </style>
  </defs>
  <path class="cls-1" d="M10.1,9.75c0-.45.03-.98,0-1.51-.05-.81-.38-1.52-.88-2.16-.07-.09-.12-.21-.12-.32-.01-.73,0-1.46,0-2.19,0-.49.25-.74.74-.74.61,0,1.23,0,1.88,0,0,.14,0,.26,0,.37,0,.27.09.35.36.35,1.1,0,2.21,0,3.31,0,1.55,0,3.1,0,4.66,0,.45,0,.49-.04.5-.5,0-.07,0-.14,0-.22.55,0,1.09-.02,1.63,0,.29.01.5.28.53.57,0,.08,0,.15,0,.23,0,4.93,0,9.86,0,14.79,0,.6-.22.83-.82.83-3.35,0-6.69,0-10.04,0-.17,0-.26-.04-.33-.22-.23-.57-.64-.97-1.21-1.21-.35-.15-.7-.3-1.05-.45-.12-.05-.16-.11-.15-.23,0-.69,0-1.38,0-2.08,0-.09.04-.19.09-.26.6-.75.92-1.6.9-2.57,0-.17.05-.25.2-.33.6-.34.79-1.16.39-1.68-.13-.17-.34-.29-.58-.48ZM10.45,8.15c0,1.66,1.34,3.02,2.99,3.03,1.67,0,3.03-1.34,3.04-3,0-1.66-1.34-3.01-2.99-3.02-1.67,0-3.03,1.33-3.03,3ZM17.28,13.4c-.58,0-1.17,0-1.75,0-.16,0-.29.03-.34.2-.05.2.08.34.33.34,1.15,0,2.31,0,3.46,0,.23,0,.38-.11.36-.29-.02-.21-.17-.26-.36-.26-.57,0-1.14,0-1.71,0ZM12.99,16.68c.46,0,.93,0,1.39,0,.25,0,.37-.09.37-.27,0-.18-.11-.28-.36-.28-.93,0-1.87,0-2.8,0-.19,0-.34.06-.36.27-.02.17.13.28.36.28.46,0,.93,0,1.39,0ZM19.69,10.98c.31,0,.62,0,.94,0,.19,0,.33-.06.35-.27.01-.17-.12-.27-.34-.27-.62,0-1.23,0-1.85,0-.19,0-.34.05-.35.27,0,.18.11.27.34.28.3,0,.61,0,.91,0ZM19.72,5.82c-.31,0-.62,0-.94,0-.18,0-.3.07-.3.26,0,.19.12.28.29.28.63,0,1.26,0,1.89,0,.17,0,.3-.08.3-.27,0-.2-.13-.28-.31-.28-.31,0-.62,0-.94,0ZM18.38,8.1c-.31,0-.62,0-.93,0-.18,0-.3.08-.31.26,0,.2.13.28.31.29.62,0,1.23,0,1.85,0,.18,0,.32-.08.32-.28,0-.19-.14-.27-.32-.27-.3,0-.61,0-.91,0ZM19.95,16.13c-.25,0-.5,0-.75,0-.18,0-.32.07-.33.27,0,.19.13.28.32.28.49,0,.97,0,1.46,0,.18,0,.32-.07.32-.27,0-.2-.13-.28-.32-.28-.24,0-.47,0-.71,0ZM12.3,13.4c-.25,0-.5,0-.75,0-.18,0-.3.08-.31.26,0,.18.12.28.29.28.5,0,1,0,1.5,0,.17,0,.3-.09.29-.28,0-.19-.13-.26-.3-.26-.24,0-.49,0-.73,0ZM16.43,16.68c.23,0,.46,0,.68,0,.22,0,.35-.11.34-.28-.01-.2-.15-.27-.33-.27-.45,0-.9,0-1.35,0-.19,0-.34.05-.35.27-.01.17.12.27.34.28.22,0,.44,0,.66,0ZM20.36,13.4s0,0,0,0c-.11,0-.23,0-.34,0-.15,0-.24.09-.26.24-.01.16.07.28.22.29.25.02.5.02.75,0,.16,0,.25-.12.24-.28,0-.16-.11-.25-.27-.25-.11,0-.23,0-.34,0ZM17.19,10.44s0,0,0,0c-.12,0-.26-.03-.36,0-.1.04-.23.15-.24.24,0,.09.12.26.2.27.25.04.52.04.77,0,.09-.01.2-.16.22-.26.02-.15-.09-.25-.25-.26-.11,0-.23,0-.34,0ZM14.38,13.4c-.29,0-.45.12-.4.32.04.18.18.23.35.23.17,0,.35.01.42-.19.07-.21-.08-.35-.36-.35ZM18.04,16.68c.24,0,.37-.09.38-.26,0-.17-.13-.28-.36-.28-.25,0-.37.09-.38.26,0,.18.12.28.36.28ZM20.63,8.1c-.25,0-.37.09-.37.27,0,.18.12.27.34.28.23,0,.37-.1.37-.28,0-.17-.12-.27-.35-.27ZM17.47,5.82c-.17-.01-.31.05-.34.26-.02.17.13.29.35.29.21,0,.35-.11.35-.27,0-.17-.13-.27-.37-.27Z"/>
  <path class="cls-1" d="M11.13,22H1.33c0-.07-.01-.13-.01-.2,0-.64-.01-1.28,0-1.92.01-.68.34-1.2.95-1.49.7-.33,1.42-.62,2.14-.92.08-.03.19-.03.28,0,1.01.36,2.02.36,3.04.01.11-.04.26-.03.36.01.66.27,1.32.55,1.97.84.69.31,1.05.85,1.07,1.61.01.68,0,1.35,0,2.05Z"/>
  <path class="cls-1" d="M3.37,9.07c.32,0,.62,0,.91,0,.06,0,.13.03.18.07,1.14.91,2.47,1.28,3.9,1.33.51.02,1.02-.04,1.52-.08.21-.01.38.09.43.31.08.34-.1.66-.43.79-.34.13-.35.13-.34.49.04.98-.24,1.85-.9,2.58-.93,1.03-2.42,1.39-3.74.9-1.31-.49-2.2-1.72-2.23-3.11,0-.14,0-.29,0-.43.01-.23-.07-.36-.31-.43-.37-.11-.56-.48-.46-.82.07-.23.19-.27.39-.16.14.08.29.16.45.23.28.13.51-.01.53-.32.03-.44.06-.88.09-1.37Z"/>
  <path class="cls-1" d="M2.69,10.13c-.05-.06-.13-.12-.13-.19.02-.74-.08-1.49.12-2.22.67-2.47,3.72-3.41,5.65-1.74.81.7,1.22,1.59,1.24,2.66,0,.41,0,.82,0,1.25-1.55.14-3.01-.06-4.41-.91.29-.05.53-.09.76-.14.91-.19,1.79-.48,2.57-1,.05-.03.1-.07.15-.1.2-.15.24-.29.14-.44-.1-.14-.26-.15-.46,0-.88.63-1.89.93-2.95,1.08-.71.1-1.44.11-2.16.15-.29.02-.38.09-.4.37-.02.4-.05.8-.07,1.2-.02,0-.04.02-.06.03Z"/>
  <path class="cls-1" d="M12.26,2.99v-.99h7.7v.99h-7.7Z"/>
  <path class="cls-1" d="M4.74,16.02c1,.35,1.98.31,2.96-.09,0,.31,0,.59,0,.87,0,.05-.07.13-.13.15-.9.32-1.8.33-2.7,0-.06-.02-.12-.1-.13-.15-.01-.26,0-.51,0-.79Z"/>
  <path class="cls-1" d="M13.46,5.69c1.36,0,2.47,1.11,2.47,2.47,0,1.35-1.11,2.46-2.45,2.46-1.37,0-2.48-1.11-2.48-2.48,0-1.35,1.11-2.45,2.46-2.45ZM12.84,8.78c-.19-.19-.36-.37-.54-.54-.15-.15-.33-.17-.44-.04-.13.15-.08.29.05.42.22.21.43.43.65.64.24.23.33.23.57,0,.61-.61,1.22-1.21,1.82-1.82.04-.04.1-.08.1-.12,0-.12.03-.28-.03-.34-.06-.06-.23-.05-.34-.03-.06,0-.11.1-.17.15-.55.55-1.11,1.11-1.68,1.68Z"/>
</svg>