<?xml version="1.0" encoding="UTF-8"?>
<svg id="Layer_1" data-name="Layer 1" xmlns="http://www.w3.org/2000/svg" viewBox="0 0 24 24">
  <defs>
    <style>
      .cls-1 {
        stroke-width: 0px;
      }
    </style>
  </defs>
  <path class="cls-1" d="M13.05,22c-.34-.16-.44-.42-.44-.79,0-3.29,0-6.57,0-9.86,0-.51.21-.72.72-.72,2.62,0,5.24,0,7.87,0,.36,0,.63.1.79.44v10.51c-.09.19-.24.34-.43.43h-8.52ZM17.32,15.73c-.56,0-1.12,0-1.68,0-.1,0-.2,0-.29.04-.25.08-.4.34-.38.6.03.27.23.51.5.52,1.23.01,2.46,0,3.69,0,.09,0,.2-.06.28-.12.2-.15.26-.4.18-.63-.09-.25-.28-.39-.57-.4-.58,0-1.16,0-1.74,0ZM17.31,18.08c-.56,0-1.12,0-1.68,0-.1,0-.21.01-.3.05-.25.1-.4.37-.35.63.06.3.29.49.64.49,1.13,0,2.27,0,3.4,0,.13,0,.27-.04.39-.11.22-.12.3-.39.23-.63-.08-.26-.28-.43-.56-.43-.59,0-1.17,0-1.76,0ZM16.13,13.39c-.19,0-.38,0-.57,0-.33.01-.58.24-.59.56-.01.32.22.59.56.6.39.02.78.02,1.17,0,.33-.01.57-.27.56-.58,0-.32-.25-.57-.59-.58-.18,0-.36,0-.55,0Z"/>
  <path class="cls-1" d="M2,7.66c0-1.65,0-3.31,0-4.96,0-.48.22-.7.7-.7,2.66,0,5.32,0,7.98,0,.47,0,.69.22.69.7,0,3.33,0,6.65,0,9.98,0,.47-.22.69-.69.69-2.67,0-5.34,0-8,0-.45,0-.68-.23-.68-.69,0-1.67,0-3.34,0-5.02ZM6.71,7.1c-.57,0-1.13,0-1.7,0-.1,0-.21.01-.3.05-.25.1-.4.37-.35.63.06.3.29.49.64.49,1.13,0,2.27,0,3.4,0,.13,0,.27-.04.39-.11.22-.12.3-.39.23-.63-.08-.26-.28-.42-.56-.43-.58,0-1.16,0-1.74,0ZM6.69,10.62c.54,0,1.08,0,1.62,0,.11,0,.22,0,.33-.04.26-.08.43-.36.39-.63-.05-.3-.28-.5-.62-.5-1.07,0-2.15,0-3.22,0-.1,0-.21,0-.31,0-.29.03-.52.27-.53.56,0,.29.2.54.49.59.08.01.17.02.25.02.53,0,1.07,0,1.6,0ZM5.5,4.76c-.19,0-.38,0-.57,0-.33.01-.58.25-.59.56-.01.32.22.59.56.6.39.02.78.02,1.17,0,.33-.01.57-.28.56-.59,0-.32-.25-.56-.59-.58-.18,0-.36,0-.55,0Z"/>
  <path class="cls-1" d="M9.38,18.48c-.08,0-.14,0-.21,0-.8,0-1.6,0-2.4,0-.43,0-.66-.23-.66-.66,0-.87,0-1.74,0-2.62,0-.4.24-.66.58-.66.35,0,.59.27.59.66,0,.7,0,1.39,0,2.1h2.1c0-.06,0-.11,0-.17,0-.23.1-.4.3-.51.2-.11.42-.11.61.03.34.26.67.54.99.83.27.24.24.63-.04.88-.29.25-.58.49-.87.73-.2.17-.43.22-.67.09-.23-.12-.33-.32-.31-.58,0-.03,0-.06,0-.12Z"/>
  <path class="cls-1" d="M16.73,6.7h-2.1c0,.06,0,.12,0,.18,0,.23-.11.4-.3.51-.2.11-.41.11-.59-.03-.35-.27-.69-.55-1.02-.85-.24-.22-.23-.6.02-.82.31-.28.64-.55.97-.82.18-.15.4-.15.61-.04.21.11.31.29.31.52,0,.05,0,.1,0,.17.08,0,.15,0,.22,0,.79,0,1.59,0,2.38,0,.45,0,.68.23.68.67,0,.87,0,1.74,0,2.62,0,.4-.24.66-.59.66-.35,0-.58-.27-.58-.66,0-.69,0-1.39,0-2.1Z"/>
</svg>