<?xml version="1.0" encoding="UTF-8"?>
<svg id="Layer_1" data-name="Layer 1" xmlns="http://www.w3.org/2000/svg" viewBox="0 0 16.24 14.97">
  <defs>
    <style>
      .cls-1 {
        stroke-width: 0px;
      }
    </style>
  </defs>
  <path class="cls-1" d="M.01,5.62h16.22c0,.08,0,.14,0,.21,0,2.09,0,4.17,0,6.26,0,1.65-1.23,2.88-2.88,2.88-3.48,0-6.97,0-10.45,0-1.66,0-2.88-1.23-2.88-2.88,0-2.09,0-4.17,0-6.26,0-.06,0-.13,0-.21ZM6.44,9.14s0,0,0,0c-.19,0-.39,0-.58,0-.3.01-.53.18-.61.43-.08.27.01.53.26.72.29.22.59.43.88.64.1.07.12.13.08.24-.12.34-.23.68-.33,1.02-.1.32-.02.59.22.76.23.16.51.15.78-.05.27-.2.55-.39.82-.6.12-.09.2-.11.33,0,.26.21.54.4.82.6.28.2.56.22.79.05.24-.17.31-.44.21-.77-.11-.34-.22-.68-.33-1.02-.04-.1-.02-.16.07-.23.28-.2.56-.4.84-.61.31-.23.41-.48.31-.77-.09-.28-.33-.43-.71-.43-.34,0-.68,0-1.01,0-.12,0-.17-.04-.21-.15-.1-.32-.21-.64-.31-.96-.12-.36-.32-.54-.62-.54-.3,0-.51.18-.63.53-.1.31-.21.63-.3.94-.04.14-.11.18-.25.18-.17-.01-.34,0-.51,0Z"/>
  <path class="cls-1" d="M16.23,4.98H.04c-.13-1.26.04-2.41,1.16-3.21.47-.34,1-.51,1.58-.52.32,0,.63,0,.98,0,0,.33-.01.65,0,.96.02.52.27.9.75,1.11.48.21.93.13,1.32-.21.27-.24.41-.55.42-.91,0-.31,0-.62,0-.94h3.74c0,.31,0,.61,0,.92,0,.42.17.76.51,1,.4.29.84.33,1.29.11.44-.22.67-.58.69-1.07.01-.32,0-.63,0-.95,1.5-.16,2.95.14,3.6,1.91.21.58.12,1.18.14,1.79Z"/>
  <path class="cls-1" d="M5.63,1.41c0,.25,0,.51,0,.76,0,.37-.27.64-.62.64-.35,0-.62-.27-.62-.64,0-.51,0-1.03,0-1.54C4.38.27,4.66,0,5.01,0c.34,0,.61.27.62.63,0,.26,0,.52,0,.78Z"/>
  <path class="cls-1" d="M11.86,1.4c0,.25,0,.51,0,.76,0,.38-.28.65-.63.65-.35,0-.61-.28-.62-.65,0-.51,0-1.01,0-1.52C10.62.27,10.89,0,11.24,0c.35,0,.62.27.63.64,0,.25,0,.51,0,.76Z"/>
</svg>