<?xml version="1.0" encoding="UTF-8"?>
<svg id="Layer_1" data-name="Layer 1" xmlns="http://www.w3.org/2000/svg" viewBox="0 0 24 24">
  <defs>
    <style>
      .cls-1 {
        stroke-width: 0px;
      }
    </style>
  </defs>
  <path class="cls-1" d="M13.54,19.23v2.77h-.24c-3.38,0-6.77,0-10.15,0-.77,0-1.15-.4-1.15-1.19,0-5.87,0-11.74,0-17.61,0-.79.38-1.19,1.15-1.19,4.26,0,8.52,0,12.78,0,.75,0,1.14.4,1.14,1.18,0,4.98,0,9.96,0,14.95v.24c-.1,0-.18,0-.25,0-.73,0-1.45,0-2.18,0-.17,0-.35.07-.52.1-.1.02-.21.05-.31.05-2.16,0-4.32,0-6.49,0-.09,0-.19,0-.28.01-.18.03-.26.15-.27.32,0,.18.07.32.26.36.09.02.19.02.28.02,1.98,0,3.96,0,5.95,0,.09,0,.19,0,.29,0ZM14.05,5.31c0,.08,0,.16,0,.23,0,.39,0,.77,0,1.16,0,.2.12.31.31.32.2.01.33-.1.36-.3,0-.05,0-.1,0-.15,0-.84,0-1.68,0-2.51,0-.2-.05-.36-.25-.42-.2-.06-.34.04-.44.22-.15.26-.31.51-.47.79-.18-.3-.34-.57-.5-.84-.1-.17-.25-.23-.42-.17-.16.05-.23.19-.23.36,0,.88,0,1.76,0,2.65,0,.24.13.38.32.39.2,0,.36-.15.36-.38,0-.39,0-.77,0-1.16,0-.06,0-.12.02-.2.4.53.53.53.92.02ZM10.78,10.06c1.16,0,2.31,0,3.47,0,.09,0,.17,0,.26-.01.17-.03.25-.16.26-.33,0-.18-.07-.3-.24-.34-.05-.01-.11-.02-.17-.02-2.39,0-4.78,0-7.17,0-.04,0-.09,0-.13.01-.18.04-.3.19-.29.36.02.18.11.3.29.33.08.01.16,0,.24,0,1.16,0,2.33,0,3.49,0ZM10.77,11.64c-1.2,0-2.4,0-3.6,0-.25,0-.41.14-.42.35,0,.22.16.36.42.36.03,0,.06,0,.09,0,2.33,0,4.67,0,7,0,.06,0,.13,0,.19,0,.25-.03.38-.29.27-.51-.08-.16-.22-.19-.38-.19-1.19,0-2.38,0-3.58,0ZM10.78,13.94c-1.16,0-2.33,0-3.49,0-.09,0-.17,0-.26.01-.17.03-.26.16-.27.33,0,.17.08.3.24.35.09.02.18.02.28.02,2.32,0,4.64,0,6.96,0,.09,0,.17,0,.26-.02.17-.03.26-.15.26-.33,0-.24-.13-.37-.43-.37-1.18,0-2.37,0-3.55,0ZM10.77,16.94c.49,0,.98,0,1.46,0,.71,0,1.42,0,2.13,0,.28,0,.43-.18.39-.43-.03-.19-.17-.28-.43-.28-2.38,0-4.75,0-7.13,0-.06,0-.12,0-.17,0-.26.06-.37.39-.18.57.08.08.23.12.35.13,1.19,0,2.38,0,3.58,0ZM5.03,4.33c.32,0,.62,0,.93,0,.24,0,.37-.15.36-.37,0-.21-.13-.33-.37-.33-.41,0-.82,0-1.23,0-.26,0-.38.13-.38.4,0,.87,0,1.75,0,2.63,0,.25.12.39.37.4.42.01.85,0,1.27,0,.17,0,.3-.09.35-.28.05-.23-.1-.42-.34-.43-.31,0-.63,0-.94,0v-.65c.33,0,.63,0,.94,0,.24,0,.39-.2.33-.44-.05-.21-.2-.27-.39-.27-.3,0-.6,0-.89,0v-.64ZM9.74,7.04s.17-.12.22-.23c.08-.15.11-.33.18-.5.02-.06.09-.12.14-.13.59-.09.64-.05.84.52,0,.02.01.04.02.06.09.23.26.33.45.25.19-.07.27-.26.2-.49-.29-.88-.59-1.76-.89-2.64-.05-.16-.16-.26-.33-.26-.18,0-.29.1-.35.27-.13.4-.27.8-.4,1.19-.16.47-.32.95-.48,1.42-.09.29.05.52.4.52ZM7.71,4.6c-.14-.26-.27-.5-.4-.73-.13-.24-.3-.31-.49-.2-.2.11-.23.3-.1.55.17.32.36.64.52.97.04.07.04.2,0,.28-.17.34-.36.68-.54,1.01-.09.17-.09.33.06.46.18.16.41.12.54-.11.14-.24.27-.49.41-.76.14.27.27.5.4.73.13.23.31.3.5.19.19-.11.23-.3.11-.54-.17-.32-.36-.64-.52-.97-.04-.08-.04-.22,0-.3.16-.34.35-.66.53-.99.12-.22.07-.41-.11-.52-.18-.11-.36-.05-.49.17-.13.24-.26.48-.41.75ZM5.22,12.36c.19,0,.39,0,.58,0,.23,0,.36-.14.36-.36,0-.21-.13-.35-.36-.35-.38,0-.76,0-1.14,0-.22,0-.36.15-.36.35,0,.2.14.35.36.35.19,0,.37,0,.56,0ZM5.22,16.94s0,0,0,0c.18,0,.36,0,.54,0,.01,0,.03,0,.04,0,.22-.01.35-.15.35-.36,0-.2-.13-.34-.34-.35-.39,0-.77,0-1.16,0-.22,0-.36.16-.35.36,0,.2.14.34.35.35.19,0,.39,0,.58,0ZM5.22,19.23c.19,0,.39,0,.58,0,.23,0,.36-.15.37-.35,0-.2-.14-.35-.36-.35-.38,0-.76,0-1.14,0-.22,0-.37.15-.37.35,0,.19.15.34.37.35.19,0,.37,0,.56,0ZM5.23,10.06s0,0,0,0c.2,0,.4,0,.6,0,.2-.01.32-.14.32-.34,0-.2-.11-.34-.31-.35-.41-.01-.82-.01-1.22,0-.2,0-.32.16-.32.34,0,.2.13.34.34.35.2.01.4,0,.6,0ZM5.23,13.94h0c-.19,0-.39,0-.58,0-.22,0-.36.15-.36.35,0,.19.13.34.34.35.39.01.79.01,1.18,0,.22,0,.33-.15.33-.35,0-.21-.12-.34-.34-.35-.19,0-.39,0-.58,0Z"/>
  <path class="cls-1" d="M20.9,6.67v9.52h-2.52V5.97s.09-.02.13-.02c.8,0,1.59,0,2.39,0,.64,0,1.1.48,1.1,1.14,0,1.33,0,2.67,0,4,0,.28-.13.44-.34.44-.22,0-.34-.15-.34-.44,0-1.31,0-2.62,0-3.94,0-.32-.09-.44-.41-.5Z"/>
  <path class="cls-1" d="M20.89,5.23h-2.5c0-.56-.04-1.11.01-1.64.06-.64.66-1.09,1.31-1.06.61.02,1.14.53,1.18,1.17.03.46.01.93.02,1.4,0,.04,0,.09-.01.14Z"/>
  <path class="cls-1" d="M16.82,19.08c-.86.9-1.71,1.77-2.56,2.67,0-.07-.02-.12-.02-.17,0-.69,0-1.38,0-2.06,0-.32.1-.43.41-.43.71,0,1.43,0,2.17,0Z"/>
  <path class="cls-1" d="M18.49,16.93h2.26s0,.08-.02.11c-.25.6-.51,1.19-.76,1.79-.06.15-.16.27-.32.24-.11-.02-.27-.09-.31-.18-.29-.63-.56-1.28-.85-1.95Z"/>
  <path class="cls-1" d="M10.44,5.45c.04-.13.08-.23.13-.39.05.15.09.26.13.39h-.27Z"/>
</svg>