<?xml version="1.0" encoding="UTF-8"?>
<svg id="Layer_1" data-name="Layer 1" xmlns="http://www.w3.org/2000/svg" viewBox="0 0 24 24">
  <defs>
    <style>
      .cls-1 {
        stroke-width: 0px;
      }
    </style>
  </defs>
  <path class="cls-1" d="M12.01,2c5.51,0,10.01,4.52,9.99,10.01-.02,5.52-4.53,10.01-10.02,9.99-5.51-.02-9.98-4.5-9.98-10,0-5.51,4.5-10.01,10.01-10ZM12.84,17.68c.06-.02.11-.04.16-.06,1.94-.59,2.46-2.42,2.31-3.6-.22-1.7-1.57-2.9-3.25-2.94-1.09-.02-1.81-.83-1.71-1.91.08-.8.66-1.36,1.47-1.41.95-.06,1.62.39,1.8,1.21.03.15.04.32.05.47.05.5.42.84.89.81.5-.04.79-.38.76-.91-.06-1.44-.94-2.6-2.31-3.03-.12-.04-.18-.08-.19-.23-.03-.48-.36-.75-.86-.74-.46.01-.77.31-.78.77,0,.18-.06.24-.23.29-1.51.46-2.5,2.07-2.25,3.63.27,1.69,1.58,2.83,3.3,2.88.93.03,1.63.71,1.67,1.62.04.94-.57,1.65-1.49,1.7-1.06.06-1.75-.5-1.83-1.49-.01-.14-.01-.29-.05-.43-.1-.4-.48-.62-.92-.56-.44.06-.7.36-.71.8,0,1.43.93,2.71,2.31,3.13.1.03.19.05.2.19.04.52.36.79.87.77.47-.02.76-.32.78-.83,0-.05,0-.09,0-.15Z"/>
</svg>