<?xml version="1.0" encoding="UTF-8"?>
<svg id="Layer_1" data-name="Layer 1" xmlns="http://www.w3.org/2000/svg" viewBox="0 0 24 24">
  <defs>
    <style>
      .cls-1 {
        stroke-width: 0px;
      }
    </style>
  </defs>
  <path class="cls-1" d="M2,12.59c0-.39,0-.78,0-1.17.01-.06.03-.11.03-.17.11-1.56.56-3.03,1.38-4.36,1.59-2.58,3.88-4.17,6.86-4.73.38-.07.76-.1,1.14-.16.39,0,.78,0,1.17,0,.05.01.1.03.15.03,1.4.09,2.74.46,3.96,1.14,3.28,1.84,5.06,4.65,5.29,8.4.11,1.79-.27,3.5-1.14,5.07-1.83,3.3-4.65,5.1-8.42,5.33-2.15.13-4.14-.44-5.93-1.64-2.37-1.59-3.82-3.8-4.34-6.61-.07-.38-.1-.76-.16-1.14ZM12.09,6.14c-1.06,0-2.02.29-2.83.99-.65.57-1.07,1.27-1.13,2.15-.03.42.17.72.51.92.56.34,1.19.09,1.45-.56.11-.28.21-.57.35-.85.17-.35.38-.67.75-.84.51-.23,1.04-.25,1.56-.07.96.34,1.28,1.42.71,2.15-.11.14-.22.27-.35.39-.48.45-.97.89-1.44,1.35-.59.59-.84,1.32-.8,2.15.03.54.36.88.87.93.51.04.85-.21.98-.75.03-.11.06-.23.08-.34.08-.42.28-.78.6-1.07.5-.46,1-.93,1.5-1.39,1.53-1.41,1.09-3.42-.25-4.39-.77-.56-1.64-.76-2.57-.76ZM13.06,16.73c0-.66-.48-1.16-1.12-1.18-.67-.01-1.19.48-1.2,1.14,0,.66.47,1.16,1.15,1.17.68.01,1.17-.46,1.18-1.13Z"/>
</svg>