<?xml version="1.0" encoding="UTF-8"?>
<svg id="Layer_1" data-name="Layer 1" xmlns="http://www.w3.org/2000/svg" viewBox="0 0 24 24">
  <defs>
    <style>
      .cls-1 {
        stroke-width: 0px;
      }
    </style>
  </defs>
  <path class="cls-1" d="M22.02,17.35c-.06.31-.1.63-.17.94-.52,2.08-2.07,3.47-4.22,3.69-2.01.2-3.7-.47-4.77-2.25-1.97-3.27,0-6.93,3.24-7.58,2.7-.55,5.41,1.33,5.85,4.06.02.15.05.29.07.44v.71ZM16.64,17.56c-.06-.06-.1-.11-.14-.15-.21-.24-.4-.48-.62-.71-.22-.23-.58-.24-.81-.03-.23.21-.26.55-.06.8.4.48.81.96,1.23,1.42.25.27.64.26.87-.03.75-.95,1.5-1.91,2.24-2.87.15-.2.16-.42.04-.64-.2-.37-.71-.4-.98-.05-.52.65-1.03,1.32-1.54,1.97-.07.09-.14.18-.22.28Z"/>
  <path class="cls-1" d="M11.04,18.49c-.07,0-.13,0-.19,0-1.16,0-2.33,0-3.49,0-.47,0-.69-.22-.69-.7,0-5.03,0-10.06,0-15.09,0-.47.22-.69.69-.69,4.02,0,8.03,0,12.05,0,.46,0,.68.22.68.69,0,2.93,0,5.86,0,8.78,0,.06,0,.11-.01.18-2.34-1.14-4.62-1.13-6.71.48-2.07,1.6-2.81,3.76-2.33,6.35ZM13.38,3.94c-1.11,0-2.22,0-3.34,0-.17,0-.34,0-.51,0-.29.02-.51.24-.53.53-.02.3.15.54.44.61.09.02.19.03.29.03,2.43,0,4.85,0,7.28,0,.1,0,.2,0,.29-.03.25-.06.4-.24.43-.5.04-.38-.21-.65-.62-.65-1.24,0-2.48,0-3.73,0ZM13.38,6.29c-1.22,0-2.43,0-3.65,0-.08,0-.16,0-.23,0-.27.03-.47.25-.49.53-.02.29.15.54.41.61.1.02.21.03.31.03,2.43,0,4.85,0,7.28,0,.09,0,.18,0,.27-.02.26-.05.43-.25.45-.52.03-.37-.22-.63-.62-.63-1.24,0-2.48,0-3.73,0ZM13.39,8.64c-1.01,0-2.02,0-3.02,0-.27,0-.55,0-.82,0-.32.02-.54.27-.53.58,0,.36.26.58.7.58,2.44,0,4.88,0,7.31,0,.09,0,.18,0,.27-.03.24-.05.4-.23.43-.47.05-.4-.2-.67-.64-.67-1.24,0-2.47,0-3.71,0ZM10.53,10.99c-.3,0-.6,0-.9,0-.36,0-.61.23-.62.56-.01.34.23.6.6.61.6.01,1.21.01,1.81,0,.38,0,.61-.25.61-.59,0-.35-.24-.57-.62-.58-.29,0-.58,0-.88,0Z"/>
  <path class="cls-1" d="M2.03,7.39h3.49v7.18h-3.49v-7.18Z"/>
  <path class="cls-1" d="M5.52,6.2h-3.48c-.08-.77.05-1.46.72-1.93.59-.42,1.24-.46,1.87-.1.78.44.97,1.17.89,2.04Z"/>
  <path class="cls-1" d="M2.23,15.77h3.09c-.02.07-.04.13-.06.19-.3.72-.6,1.44-.9,2.17-.11.26-.27.44-.57.45-.31,0-.48-.18-.59-.45-.29-.72-.6-1.44-.9-2.17-.02-.05-.04-.11-.07-.19Z"/>
</svg>