<?xml version="1.0" encoding="UTF-8"?>
<svg id="Layer_1" data-name="Layer 1" xmlns="http://www.w3.org/2000/svg" viewBox="0 0 24 24">
  <defs>
    <style>
      .cls-1 {
        stroke-width: 0px;
      }
    </style>
  </defs>
  <path class="cls-1" d="M2,12.25c0-.18,0-.36,0-.55.12-.58.49-.99.9-1.39,2.47-2.46,4.94-4.93,7.4-7.4.41-.41.82-.79,1.41-.91h.55c.59.12,1,.5,1.41.91,2.53,2.55,5.08,5.08,7.62,7.62.08.08.17.16.24.25.91,1.07.33,2.73-1.05,2.99-.21.04-.42.04-.65.06,0,.09,0,.16,0,.24,0,1.88,0,3.77,0,5.65,0,1.31-.93,2.23-2.23,2.23-.99,0-1.99,0-2.98,0-.49,0-.71-.22-.71-.72,0-1.49,0-2.99,0-4.48,0-.67-.4-1.07-1.07-1.07-.55,0-1.1.01-1.66,0-.68-.02-1.13.46-1.12,1.11.02,1.49,0,2.97,0,4.46,0,.48-.22.7-.71.7-.98,0-1.96,0-2.94,0-1.36,0-2.27-.91-2.27-2.27,0-1.88,0-3.75,0-5.63,0-.08,0-.15,0-.22-.04-.01-.05-.02-.06-.02-.1,0-.19,0-.29,0-.71-.04-1.25-.37-1.58-1-.09-.17-.14-.37-.2-.56Z"/>
</svg>