<?xml version="1.0" encoding="UTF-8"?>
<svg id="Layer_1" data-name="Layer 1" xmlns="http://www.w3.org/2000/svg" viewBox="0 0 24 24">
  <defs>
    <style>
      .cls-1 {
        stroke-width: 0px;
      }
    </style>
  </defs>
  <path class="cls-1" d="M1.98,18.9c0-5.17,0-10.34,0-15.51.02-.05.03-.09.05-.14.16-.58.52-.97,1.09-1.18.09-.03.18-.06.27-.09,3.24,0,6.48,0,9.72,0,.05.01.1.03.15.04,1.08.19,1.99,1.15,2.03,2.22.04.93.01,1.86.01,2.79,0,.24-.11.44-.3.59-.26.21-.56.25-.86.11-.31-.14-.49-.39-.49-.74,0-.81,0-1.63,0-2.44,0-.57-.34-.91-.91-.91-1.17,0-2.34,0-3.51,0-.05,0-.1,0-.2.02.82.27,1.3.9,1.3,1.87-.02,4,0,8.01,0,12.01v.26h.24c.71,0,1.42-.02,2.13,0,.62.02.99-.4.98-.98-.02-1.03,0-2.06,0-3.09,0-.12,0-.24.04-.35.11-.39.5-.64.88-.59.43.06.74.38.74.82,0,1.11,0,2.21,0,3.32,0,1.44-1.1,2.52-2.54,2.52-.74,0-1.48,0-2.23,0h-.22c0,.08,0,.14,0,.19,0,.31.02.63-.03.93-.18,1.02-1.19,1.61-2.19,1.28-1.65-.54-3.29-1.09-4.94-1.65-.49-.16-.84-.49-1.04-.96-.05-.12-.09-.26-.13-.39Z"/>
  <path class="cls-1" d="M16.98,11.15c-.1,0-.18,0-.25,0-1.01,0-2.02,0-3.03,0-.59,0-.99-.49-.86-1.04.09-.38.42-.63.83-.63,1.02,0,2.04,0,3.07,0,.07,0,.14,0,.24,0,0-.08,0-.15,0-.21,0-.74,0-1.47,0-2.21,0-.39.15-.68.51-.84.33-.15.67-.06.96.23,1.08,1.08,2.16,2.16,3.24,3.25.38.38.38.87,0,1.25-1.09,1.09-2.18,2.18-3.27,3.27-.28.28-.62.35-.95.2-.34-.16-.5-.43-.5-.81,0-.81,0-1.61,0-2.45Z"/>
</svg>