<?xml version="1.0" encoding="UTF-8"?>
<svg id="Layer_1" data-name="Layer 1" xmlns="http://www.w3.org/2000/svg" viewBox="0 0 24 24">
  <defs>
    <style>
      .cls-1 {
        stroke-width: 0px;
      }
    </style>
  </defs>
  <path class="cls-1" d="M2,14.71c0-.09,0-.17,0-.25,0-3.82,0-7.64,0-11.46,0-.66.35-.99,1.06-.99,5.96,0,11.92,0,17.88,0,.7,0,1.06.33,1.06.97,0,3.83,0,7.66,0,11.49v.25H2ZM18.3,6.59c0,.07.02.1.02.13,0,.87,0,1.74,0,2.61,0,.09-.02.18-.05.27-.23.79-.45,1.58-.68,2.36-.1.36.04.53.44.54.41,0,.83,0,1.24,0,.43,0,.57-.17.46-.56-.22-.77-.44-1.53-.66-2.3-.04-.13-.06-.27-.06-.4,0-.98,0-1.97,0-2.95,0-.1,0-.2-.04-.29-.03-.07-.1-.16-.17-.18-2.32-.81-4.64-1.61-6.96-2.41-.14-.05-.33-.05-.46,0-2.3.79-4.6,1.59-6.9,2.38-.17.06-.32.13-.32.32,0,.19.16.26.33.32.59.2,1.18.42,1.78.62.19.06.26.14.26.34-.01,1.5,0,3,0,4.5,0,.35.05.41.4.49,1.49.33,2.99.65,4.48.97.11.02.24.02.36,0,1.49-.32,2.97-.64,4.46-.96.42-.09.46-.14.46-.53,0-1.49,0-2.98,0-4.47,0-.08.03-.2.09-.22.49-.19.99-.36,1.52-.55Z"/>
  <path class="cls-1" d="M21.99,15.38c0,.55.03,1.1,0,1.64-.03.4-.37.68-.81.73-.1.01-.21.01-.32.01-5.91,0-11.81,0-17.72,0-.81,0-1.14-.31-1.14-1.06,0-.44,0-.87,0-1.32h19.99Z"/>
  <path class="cls-1" d="M15.58,20.55h-7.18c.1-.26.18-.5.27-.74.15-.41.31-.83.45-1.24.04-.12.1-.16.24-.16,1.76,0,3.51,0,5.27,0,.07,0,.19.06.21.11.25.64.48,1.28.72,1.93,0,.03,0,.06.01.1Z"/>
  <path class="cls-1" d="M6.58,22c0-.12,0-.21,0-.31,0-.33.15-.47.51-.47,3.15,0,6.3,0,9.44.01.06,0,.11,0,.17,0,.65.02.75.13.7.77H6.58Z"/>
  <path class="cls-1" d="M7.23,7.37c.74.25,1.46.5,2.18.75.66.23,1.32.47,1.99.68.15.05.36.06.51,0,1.28-.43,2.54-.87,3.82-1.31.08-.03.17-.05.28-.09,0,.08.02.15.02.21,0,1.31,0,2.62,0,3.93,0,.16-.05.22-.22.26-1.34.29-2.67.59-4.01.88-.11.02-.23.03-.33,0-1.36-.3-2.72-.6-4.08-.89-.12-.03-.18-.06-.18-.19,0-1.38,0-2.77,0-4.15,0-.01,0-.03.02-.08Z"/>
  <path class="cls-1" d="M5.54,6.09c1.87-.64,3.69-1.26,5.5-1.9.41-.14.75-.15,1.16,0,1.73.62,3.47,1.2,5.2,1.8.08.03.17.06.3.11-.11.04-.18.07-.25.1-1.88.65-3.76,1.29-5.64,1.94-.1.04-.24.05-.34.01-1.91-.65-3.82-1.31-5.73-1.97-.05-.02-.1-.04-.2-.08Z"/>
  <path class="cls-1" d="M18.39,11.83c.1-.35.19-.69.28-1.02.02,0,.03,0,.05,0,.1.33.21.67.32,1.02h-.65Z"/>
</svg>