<?xml version="1.0" encoding="UTF-8"?>
<svg id="Layer_1" data-name="Layer 1" xmlns="http://www.w3.org/2000/svg" viewBox="0 0 24 24">
  <defs>
    <style>
      .cls-1 {
        stroke-width: 0px;
      }
    </style>
  </defs>
  <path class="cls-1" d="M23,20.05c-.09,0-.18-.02-.27-.02-3.08,0-6.17,0-9.25,0h-.28c0-.08-.01-.14-.01-.2,0-1.61,0-3.21,0-4.82,0-1.04.6-1.83,1.59-2.1.2-.06.42-.07.63-.07,1.78,0,3.56.02,5.34-.01,1.08-.02,2.02.68,2.21,1.75,0,.02.02.03.03.05v5.42Z"/>
  <path class="cls-1" d="M1.8,20.02c0-.07,0-.13,0-.18,0-1.84,0-3.67,0-5.51,0-1.86,1.17-3.36,2.98-3.81.3-.07.61-.11.92-.11,1.73-.01,3.46-.01,5.19,0,1.35,0,2.44.56,3.23,1.67.02.02.03.04.05.07,0,.01,0,.03.02.06-.14.08-.3.15-.44.24-.93.6-1.39,1.47-1.39,2.57,0,1.59,0,3.17,0,4.76v.24H1.8Z"/>
  <path class="cls-1" d="M8.31,2.77c1.79,0,3.27,1.48,3.25,3.26-.02,1.79-1.46,3.23-3.25,3.23-1.8,0-3.25-1.46-3.24-3.25,0-1.79,1.46-3.24,3.24-3.23Z"/>
  <path class="cls-1" d="M20.49,9.12c0,1.32-1.07,2.4-2.39,2.41-1.32,0-2.4-1.07-2.4-2.39,0-1.32,1.07-2.4,2.38-2.41,1.32,0,2.39,1.07,2.4,2.39Z"/>
</svg>