<?xml version="1.0" encoding="UTF-8"?>
<svg id="Layer_1" data-name="Layer 1" xmlns="http://www.w3.org/2000/svg" viewBox="0 0 24 24">
  <defs>
    <style>
      .cls-1 {
        stroke-width: 0px;
      }
    </style>
  </defs>
  <path class="cls-1" d="M12.29,2c.26.05.52.1.78.16,1.77.41,3.28,2.1,3.52,3.91.16,1.19-.02,2.31-.69,3.32-.89,1.33-2.12,2.11-3.76,2.22-2.14.14-3.9-1.12-4.7-2.83-.75-1.61-.45-3.75.73-5.08.72-.82,1.59-1.38,2.67-1.6.18-.04.37-.07.55-.1.3,0,.6,0,.9,0Z"/>
  <path class="cls-1" d="M11.96,21.96c-1.58,0-3.16,0-4.74,0-.81,0-1.57-.16-2.25-.64-.76-.54-1.21-1.29-1.29-2.22-.14-1.65.05-3.27.67-4.82.37-.92.92-1.71,1.83-2.2.57-.3,1.18-.45,1.81-.44.2,0,.41.1.6.2.3.16.58.37.87.55,1.67,1.02,3.33,1.02,4.99,0,.23-.14.47-.28.69-.45.4-.3.84-.34,1.31-.27,1.29.19,2.21.9,2.83,2.03.55,1.01.8,2.11.91,3.24.06.57.08,1.15.08,1.73-.02,1.78-1.21,3.07-2.98,3.25-.21.02-.43.03-.64.03-1.57,0-3.13,0-4.7,0Z"/>
</svg>