<?xml version="1.0" encoding="UTF-8"?>
<svg id="Layer_1" data-name="Layer 1" xmlns="http://www.w3.org/2000/svg" viewBox="0 0 24 24">
  <defs>
    <style>
      .cls-1 {
        stroke-width: 0px;
      }
    </style>
  </defs>
  <path class="cls-1" d="M22,14.3c-.56.48-1.13.95-1.69,1.42-.17-.36-.35-.72-.53-1.1.47-.4.96-.81,1.46-1.23.26.29.51.58.76.87v.04Z"/>
  <path class="cls-1" d="M16.91,2v10.14c-.48.14-.96.23-1.39.43-1.44.65-2.28,1.79-2.54,3.36-.02.15-.07.18-.21.18-1.42,0-2.84,0-4.26,0-.08,0-.15,0-.25,0v1.19h4.72c.19.99.63,1.82,1.36,2.49.72.66,1.58,1.03,2.55,1.12v1.09H2V2h14.91ZM8.27,14.04h5.26v-1.16h-5.26v1.16ZM8.27,10.81h5.26v-1.17h-5.26v1.17ZM8.26,7.57h5.26v-1.16h-5.26v1.16ZM5.84,17.42c.31,0,.59-.27.59-.57,0-.34-.27-.62-.59-.62-.31,0-.59.27-.59.57,0,.34.26.62.58.62ZM5.26,10.2c0,.34.26.62.58.62.31,0,.59-.27.59-.57,0-.33-.27-.62-.59-.62-.31,0-.59.27-.59.57ZM5.84,6.34c-.31,0-.59.26-.59.57,0,.34.26.62.58.62.3,0,.59-.27.59-.57,0-.34-.26-.61-.58-.61ZM5.84,12.94c-.31,0-.59.26-.59.56,0,.34.26.62.58.62.3,0,.59-.27.59-.57,0-.34-.26-.62-.58-.62Z"/>
  <path class="cls-1" d="M19.74,14.65c-.81.69-1.62,1.37-2.43,2.06-.58-.47-1.16-.94-1.76-1.42-.25.31-.48.61-.74.92.84.68,1.67,1.36,2.51,2.04.98-.83,1.95-1.65,2.93-2.48.36,1.07-.04,2.81-1.59,3.61-1.49.77-3.32.21-4.15-1.26-.83-1.47-.36-3.34,1.06-4.25,1.36-.88,3.26-.52,4.17.79Z"/>
</svg>