<?xml version="1.0" encoding="UTF-8"?>
<svg id="Layer_1" data-name="Layer 1" xmlns="http://www.w3.org/2000/svg" viewBox="0 0 24 24">
  <defs>
    <style>
      .cls-1 {
        stroke-width: 0px;
      }
    </style>
  </defs>
  <path class="cls-1" d="M2.35,21.36c0-.65,0-1.3.01-1.96,0-.54.03-1.08,0-1.62-.04-.5.23-.84.66-1.14.74-.52,1.6-.87,2.49-1.16,1.13-.36,2.22-.8,3.26-1.31.41-.2.6-.16.82.2.53.86,1.03,1.73,1.58,2.59.21.32.48.62.77.9.29.27.55.26.86,0,.51-.43.82-.96,1.14-1.49.41-.67.8-1.35,1.21-2.02.2-.34.41-.39.78-.19,1.28.66,2.68,1.1,4.05,1.61.74.28,1.45.61,2.02,1.12.24.21.35.45.35.74,0,1.17,0,2.33,0,3.5,0,.08,0,.16.01.23H2.35Z"/>
  <path class="cls-1" d="M18.67,5.18c-.42.17-.79.35-1.19.48-.32.1-.42.26-.43.55-.03.52-.14,1.03-.22,1.55-.02.13-.03.23.1.33.23.19.28.45.26.71-.02.25-.07.5-.13.75-.07.25-.25.45-.54.55-.25.09-.37.25-.43.47-.38,1.34-1.78,2.41-3.39,2.59-.91.1-1.73-.14-2.46-.59-.84-.53-1.44-1.19-1.67-2.07-.04-.14-.19-.29-.34-.36-.36-.16-.57-.4-.63-.73-.05-.27-.1-.55-.07-.81.02-.18.17-.35.25-.53.04-.09.1-.19.09-.27-.07-.6-.16-1.2-.23-1.8-.01-.12-.07-.18-.19-.23-.74-.3-1.48-.6-2.21-.91-.08-.03-.17-.07-.24-.12-.17-.12-.17-.3,0-.42.1-.07.22-.12.34-.17,2.13-.88,4.27-1.75,6.4-2.64.43-.18.81-.18,1.23,0,2.14.89,4.3,1.77,6.44,2.66.19.08.43.14.42.37,0,.22-.23.29-.41.35-.19.07-.24.16-.23.33.01.48,0,.97,0,1.45,0,.07.05.16.1.22.17.17.18.36.03.56-.04.06-.07.14-.06.21.07.35.14.71.23,1.06.05.19-.03.28-.23.3-.23.02-.46.03-.69.01-.18-.01-.26-.11-.22-.28.09-.36.17-.73.24-1.1.01-.07-.01-.15-.06-.21-.15-.19-.14-.38.04-.55.04-.04.1-.09.1-.14,0-.5,0-1,0-1.53Z"/>
</svg>