<?xml version="1.0" encoding="UTF-8"?>
<svg id="Layer_1" data-name="Layer 1" xmlns="http://www.w3.org/2000/svg" viewBox="0 0 24 24">
  <defs>
    <style>
      .cls-1 {
        stroke-width: 0px;
      }
    </style>
  </defs>
  <path class="cls-1" d="M16.92,7.43c0,1.97-1.18,3.75-2.93,4.42-1.94.74-4.06.05-5.25-1.69-1.42-2.08-.98-5.01.99-6.52,2.3-1.77,5.57-.91,6.77,1.78.29.64.43,1.31.42,2.02Z"/>
  <path class="cls-1" d="M21.43,18.52c-.58-.85-.86-1.08-1.76-1.35v-1.65c-.44.04-.86.06-1.27.12-1.15.15-2.25.45-3.28,1.02-.2.11-.27.23-.27.46.02,1.29.02,2.58.03,3.87,0,.07,0,.15,0,.24h-.57c0-.08,0-.16,0-.23,0-1.32-.02-2.65-.02-3.97,0-.16-.06-.24-.19-.32-.95-.56-1.98-.85-3.06-1.02-.5-.08-1.01-.11-1.55-.17v5.47c-.69.04-3.29-.63-3.93-1,.71-.16,1.25-.53,1.6-1.15.35-.63.39-1.29.14-1.96-.41-1.07-1.73-1.89-3.23-1.2-.52-1.87-1.04-3.73-1.58-5.63.26-.07.51-.14.78-.21.51,1.8,1.02,3.59,1.52,5.35.49-.4.96-.83,1.48-1.18,1.14-.79,2.41-1.29,3.74-1.64.13-.03.22,0,.32.07.66.53,1.33,1.06,2,1.58.05.04.1.07.16.12.71-.56,1.42-1.11,2.11-1.67.13-.11.25-.12.41-.08,1.64.45,3.18,1.12,4.49,2.24,1,.86,1.7,1.91,1.92,3.24.04.22,0,.45,0,.68Z"/>
  <path class="cls-1" d="M19.26,17.69c.93,0,1.72.79,1.73,1.73,0,.92-.78,1.71-1.71,1.72-.94,0-1.73-.78-1.74-1.72,0-.95.77-1.73,1.72-1.73Z"/>
  <path class="cls-1" d="M5.13,15.98c1.01.02,1.79.78,1.78,1.74-.01.95-.79,1.71-1.73,1.7-.95-.02-1.74-.82-1.71-1.77.03-.99.78-1.63,1.66-1.67Z"/>
</svg>