<?xml version="1.0" encoding="UTF-8"?>
<svg id="Layer_1" data-name="Layer 1" xmlns="http://www.w3.org/2000/svg" viewBox="0 0 24 24">
  <defs>
    <style>
      .cls-1 {
        stroke-width: 0px;
      }
    </style>
  </defs>
  <path class="cls-1" d="M1.98,8.35c.08-.18.13-.39.24-.55.26-.39.64-.54,1.08-.53,1.56,0,3.12,0,4.69,0,.61,0,1.09.25,1.47.75.47.62.94,1.23,1.4,1.86.09.12.18.16.33.16.55,0,1.11,0,1.66,0,.42,0,.61.22.63.65.03.74-.17.93-.87.91-.6-.02-1.21-.02-1.82,0-.37.01-.64-.12-.85-.43-.25-.36-.53-.71-.79-1.06-.11-.15-.24-.25-.43-.19-.21.07-.19.25-.19.42,0,3.63,0,7.27-.01,10.9,0,.09,0,.18,0,.26-.02.27-.21.48-.47.49-.33.01-.66.01-1,0-.26-.01-.46-.22-.49-.49,0-.07,0-.15,0-.22,0-1.44,0-2.88,0-4.32,0-.07,0-.15,0-.22-.03-.15-.12-.24-.27-.24-.15,0-.25.08-.28.23-.01.08-.02.16-.02.24,0,1.42,0,2.84,0,4.26,0,.07,0,.15,0,.22-.03.33-.23.54-.54.55-.29,0-.59,0-.88,0-.32,0-.53-.23-.54-.57,0-.07,0-.14,0-.2,0-3.62,0-7.24,0-10.86,0-.08.02-.18-.02-.24-.06-.09-.16-.2-.25-.2-.08,0-.18.11-.24.2-.04.06-.02.16-.02.24,0,1.34,0,2.69,0,4.03,0,.25-.05.46-.27.59-.39.23-1.02.06-1.24-.34,0-2.09,0-4.19,0-6.28Z"/>
  <path class="cls-1" d="M13.46,11.93c.69-.57.81-1.11.43-1.84.05-.06.1-.13.15-.2.6-.77,1.2-1.54,1.8-2.31.06-.08.12-.16.15-.26.05-.15,0-.3-.12-.4-.13-.11-.28-.12-.42-.03-.07.05-.14.12-.19.2-.62.79-1.25,1.59-1.86,2.38-.08.11-.16.13-.29.12-.55-.02-1.09-.03-1.64-.02-.2,0-.32-.07-.46-.23-.24-.28-.31-.57-.31-.94.02-1.31,0-2.62,0-3.93,0-.55.18-.73.71-.73,3.29,0,6.57,0,9.86,0,.52,0,.7.19.7.73,0,2.24,0,4.48,0,6.72,0,.52-.19.71-.69.71-2.54,0-5.08,0-7.61,0-.06,0-.11,0-.22,0Z"/>
  <path class="cls-1" d="M6.25,6.54c-1.23-.03-2.18-1.06-2.16-2.33.03-1.26,1.02-2.26,2.23-2.23,1.22.03,2.17,1.07,2.14,2.34-.03,1.24-1.03,2.24-2.21,2.21Z"/>
</svg>