<?xml version="1.0" encoding="UTF-8"?>
<svg id="Layer_1" data-name="Layer 1" xmlns="http://www.w3.org/2000/svg" viewBox="0 0 24 24">
  <defs>
    <style>
      .cls-1 {
        stroke-width: 0px;
      }
    </style>
  </defs>
  <path class="cls-1" d="M12.09,15.06v1.79h-.22c-2.62,0-5.24,0-7.85,0-.33,0-.65-.12-1.01-.19.01.22,0,.49.05.75.07.36.4.62.78.65.11,0,.21,0,.32,0,2.55,0,5.11,0,7.66,0h.28v.61h-.23c-2.6,0-5.21,0-7.81,0-1.01,0-1.64-.64-1.64-1.65,0-4.15,0-8.29,0-12.44,0-1.08.81-1.73,1.66-1.66.05,0,.1,0,.17,0,0-.21,0-.4,0-.59,0-.52.39-.92.89-.93.49-.02.9.37.93.89.01.2,0,.4,0,.61h9.08c0-.18,0-.36,0-.54,0-.55.38-.96.9-.96.51,0,.91.4.92.94,0,.18,0,.37,0,.56.2.01.37,0,.54.03.76.13,1.26.73,1.26,1.53,0,1.18,0,2.36,0,3.54,0,1.55,0,3.1,0,4.64,0,.08,0,.17,0,.21-.4.14-.77.27-1.14.4-.16.05-.36-.09-.37-.26-.01-.3-.1-.39-.4-.39-.53,0-1.05,0-1.58,0-.3,0-.34.02-.48.3-.34,0-.69,0-1.04,0-.05,0-.13-.05-.16-.09-.07-.15-.19-.2-.34-.2-.57,0-1.14,0-1.7,0-.26,0-.36.1-.36.37,0,.56,0,1.12,0,1.68,0,.27.1.36.38.37.16,0,.31,0,.47,0,.01,0,.02.01.05.02ZM3.03,5.65c.08,0,.15,0,.22,0,3.11,0,6.21,0,9.32,0,.07,0,.14,0,.21-.02.15-.05.24-.15.22-.32-.02-.15-.11-.24-.26-.26-.06,0-.11,0-.17,0-3.11,0-6.21,0-9.32,0-.07,0-.15,0-.22,0v.59ZM9.98,10.8c0-.28,0-.55,0-.83,0-.28-.1-.39-.38-.39-.55,0-1.11,0-1.66,0-.27,0-.38.11-.38.37,0,.56,0,1.12,0,1.68,0,.26.11.36.36.37.57,0,1.14,0,1.7,0,.25,0,.35-.11.36-.37,0-.28,0-.55,0-.83ZM14.83,10.79c0,.28,0,.57,0,.85,0,.26.1.36.36.36.56,0,1.12,0,1.68,0,.27,0,.38-.11.38-.37,0-.56,0-1.12,0-1.68,0-.25-.11-.37-.37-.37-.57,0-1.14,0-1.7,0-.25,0-.35.12-.35.38,0,.28,0,.55,0,.83ZM5.13,12c.28,0,.55,0,.83,0,.28,0,.39-.1.39-.38,0-.55,0-1.11,0-1.66,0-.27-.11-.38-.38-.38-.56,0-1.12,0-1.68,0-.26,0-.36.11-.36.36,0,.57,0,1.14,0,1.7,0,.24.11.35.35.35.28,0,.57,0,.85,0ZM8.76,15.03c.28,0,.57,0,.85,0,.26,0,.37-.1.37-.36,0-.57,0-1.14,0-1.7,0-.25-.1-.35-.35-.36-.57,0-1.15,0-1.72,0-.24,0-.35.12-.35.36,0,.57,0,1.14,0,1.7,0,.24.11.35.35.35.28,0,.57,0,.85,0ZM5.14,15.03c.28,0,.55,0,.83,0,.27,0,.38-.1.38-.37,0-.56,0-1.12,0-1.68,0-.25-.11-.37-.36-.37-.57,0-1.13,0-1.7,0-.26,0-.35.11-.36.37,0,.56,0,1.12,0,1.68,0,.26.1.36.36.37.28,0,.57,0,.85,0ZM12.39,12c.29,0,.58,0,.87,0,.24,0,.34-.1.35-.33,0-.58,0-1.16,0-1.75,0-.23-.11-.34-.34-.34-.57,0-1.15,0-1.72,0-.23,0-.34.11-.35.34,0,.58,0,1.16,0,1.75,0,.23.11.33.34.33.28,0,.57,0,.85,0ZM9.98,7.77c0-.28,0-.55,0-.83,0-.28-.1-.39-.38-.39-.55,0-1.11,0-1.66,0-.27,0-.38.11-.38.38,0,.56,0,1.12,0,1.68,0,.25.11.36.36.37.57,0,1.14,0,1.7,0,.24,0,.35-.11.35-.35,0-.28,0-.57,0-.85ZM5.12,8.98c.28,0,.55,0,.83,0,.28,0,.39-.1.39-.38,0-.55,0-1.11,0-1.66,0-.27-.11-.38-.37-.38-.56,0-1.12,0-1.68,0-.26,0-.37.11-.37.36,0,.57,0,1.14,0,1.7,0,.25.11.36.37.36.28,0,.55,0,.83,0ZM14.83,7.76c0,.28,0,.55,0,.83,0,.29.1.39.38.39.55,0,1.11,0,1.66,0,.27,0,.38-.11.38-.37,0-.56,0-1.12,0-1.68,0-.25-.11-.37-.36-.37-.57,0-1.14,0-1.7,0-.25,0-.35.12-.36.37,0,.28,0,.55,0,.83ZM12.4,8.98c.28,0,.57,0,.85,0,.25,0,.35-.1.36-.35,0-.57,0-1.15,0-1.72,0-.24-.11-.35-.36-.35-.57,0-1.13,0-1.7,0-.24,0-.35.11-.36.35,0,.57,0,1.15,0,1.72,0,.24.11.34.36.35.28,0,.57,0,.85,0ZM14.97,5.65c.33,0,.65,0,.98,0,.25,0,.38-.1.39-.3,0-.19-.12-.3-.37-.31-.66,0-1.32,0-1.98,0-.23,0-.36.11-.37.29,0,.19.14.31.37.31.33,0,.65,0,.98,0ZM5.43,2.91c0-.22,0-.41,0-.61,0-.17-.11-.28-.28-.28-.18,0-.29.09-.31.26-.02.21,0,.42,0,.64h.6ZM16.33,2.91c0-.21,0-.42,0-.62,0-.16-.11-.26-.27-.27-.17-.01-.3.08-.32.25-.02.21,0,.43,0,.64h.59ZM17.09,5.65s0,0,0,0c.05,0,.1,0,.15,0,.19-.02.32-.15.31-.31-.02-.18-.12-.28-.31-.29-.11,0-.23,0-.34,0-.15.02-.24.11-.25.27-.01.15.06.26.21.31.07.02.15.02.23.03Z"/>
  <path class="cls-1" d="M12.7,17.15c0-.87,0-1.75,0-2.62,0-.64.36-1.01,1-1.01.78,0,1.56,0,2.34,0,.51,0,.97.13,1.38.42.1.07.17.06.26,0,.41-.28.86-.41,1.36-.41.79,0,1.59,0,2.38,0,.58,0,.97.37.97.95,0,1.78,0,3.56,0,5.34,0,.59-.37.96-.96.97-.76,0-1.52,0-2.28,0-.53,0-.99.14-1.38.5-.16.15-.3.15-.47,0-.39-.36-.84-.5-1.36-.49-.74,0-1.48,0-2.21,0-.68,0-1.03-.36-1.03-1.04,0-.87,0-1.73,0-2.6ZM17.25,20.5c0-1.97,0-3.89,0-5.82,0-.07-.06-.16-.11-.2-.3-.23-.65-.35-1.03-.35-.8,0-1.6,0-2.41,0-.28,0-.39.1-.39.39,0,1.76,0,3.52,0,5.28,0,.29.1.39.38.39.6,0,1.21,0,1.81,0,.59,0,1.18-.01,1.75.32ZM17.85,20.49c.53-.3,1.08-.32,1.64-.31.64,0,1.28,0,1.92,0,.28,0,.38-.09.38-.37,0-1.77,0-3.55,0-5.32,0-.26-.11-.36-.36-.36-.82,0-1.63,0-2.45,0-.35,0-.67.12-.96.31-.12.08-.17.16-.17.31,0,1.14,0,2.27,0,3.41v2.34Z"/>
  <path class="cls-1" d="M12.68,13.24c-.37.33-.56.71-.58,1.18h-.28v-1.18h.86Z"/>
  <path class="cls-1" d="M9.36,11.39h-1.19v-1.18h1.19v1.18Z"/>
  <path class="cls-1" d="M16.63,11.39h-1.19v-1.18h1.19v1.18Z"/>
  <path class="cls-1" d="M5.73,10.21v1.18h-1.19v-1.18h1.19Z"/>
  <path class="cls-1" d="M9.36,14.42h-1.18v-1.18h1.18v1.18Z"/>
  <path class="cls-1" d="M4.53,14.42v-1.18h1.19v1.18h-1.19Z"/>
  <path class="cls-1" d="M11.82,10.2h1.18v1.18h-1.18v-1.18Z"/>
  <path class="cls-1" d="M9.37,7.18v1.18h-1.19v-1.18h1.19Z"/>
  <path class="cls-1" d="M4.54,7.17h1.19v1.19h-1.19v-1.19Z"/>
  <path class="cls-1" d="M15.44,7.17h1.18v1.19h-1.18v-1.19Z"/>
  <path class="cls-1" d="M12.99,8.36h-1.18v-1.19h1.18v1.19Z"/>
  <path class="cls-1" d="M14.81,15.64c-.18,0-.37,0-.55,0-.22,0-.34-.12-.34-.3,0-.18.12-.31.33-.31.38,0,.76,0,1.15,0,.21,0,.33.13.33.31,0,.18-.12.29-.34.3-.19,0-.38,0-.57,0Z"/>
  <path class="cls-1" d="M14.82,18.37c-.19,0-.38,0-.57,0-.2,0-.32-.12-.32-.29,0-.18.12-.31.33-.31.38,0,.76,0,1.15,0,.21,0,.33.13.33.31,0,.18-.12.29-.34.3-.01,0-.03,0-.04,0-.18,0-.35,0-.53,0h0Z"/>
  <path class="cls-1" d="M14.85,15.95c.19,0,.38,0,.57,0,.18,0,.29.1.3.29.01.17-.11.31-.3.31-.4,0-.79,0-1.19,0-.2,0-.31-.13-.31-.3,0-.18.11-.29.31-.3.2,0,.41,0,.61,0Z"/>
  <path class="cls-1" d="M14.81,17.46c-.19,0-.38,0-.57,0-.2,0-.32-.12-.32-.29,0-.18.11-.3.31-.3.4,0,.79,0,1.19,0,.19,0,.31.13.31.31,0,.18-.12.29-.32.29-.2,0-.4,0-.59,0Z"/>
  <path class="cls-1" d="M14.81,19.28c-.19,0-.38,0-.57,0-.2,0-.31-.13-.31-.3,0-.18.11-.29.31-.3.4,0,.79,0,1.19,0,.18,0,.29.1.3.29.01.17-.11.3-.3.31-.2,0-.41,0-.61,0Z"/>
  <path class="cls-1" d="M20.27,15.64c-.19,0-.38,0-.57,0-.2,0-.32-.12-.32-.29,0-.18.12-.31.33-.31.38,0,.76,0,1.15,0,.21,0,.33.13.33.31,0,.18-.12.29-.34.3-.01,0-.03,0-.04,0-.18,0-.35,0-.53,0h0Z"/>
  <path class="cls-1" d="M20.26,18.37c-.19,0-.38,0-.57,0-.2,0-.32-.13-.32-.3,0-.17.12-.3.31-.3.39,0,.78,0,1.17,0,.21,0,.33.13.33.31,0,.17-.12.28-.32.29-.2,0-.4,0-.59,0Z"/>
  <path class="cls-1" d="M20.27,15.95c.2,0,.4,0,.59,0,.2,0,.31.12.32.3,0,.17-.12.3-.31.3-.4,0-.79,0-1.19,0-.19,0-.31-.14-.3-.31.01-.19.12-.28.3-.29.2,0,.4,0,.59,0Z"/>
  <path class="cls-1" d="M20.27,17.46c-.19,0-.38,0-.57,0-.2,0-.32-.11-.32-.29,0-.18.11-.3.31-.31.4,0,.79,0,1.19,0,.19,0,.31.13.31.3,0,.18-.12.29-.32.29-.2,0-.4,0-.59,0Z"/>
  <path class="cls-1" d="M20.28,18.68c.2,0,.4,0,.59,0,.18,0,.29.1.3.29.01.17-.11.31-.3.31-.4,0-.79,0-1.19,0-.2,0-.31-.13-.31-.3,0-.18.11-.29.31-.3.2,0,.4,0,.59,0Z"/>
</svg>